<svg width="24" height="24" viewBox="0 0 24 24" fill="none" xmlns="http://www.w3.org/2000/svg">
<rect x="2" y="2" width="20" height="20" rx="10" stroke="white" stroke-width="1.5"/>
<path d="M18.475 4.32282C16.4856 6.27299 15.25 8.99279 15.25 11.9998H16.75C16.75 9.41208 17.8116 7.07365 19.525 5.39397L18.475 4.32282ZM19.525 18.6057C17.8116 16.926 16.75 14.5876 16.75 11.9998H15.25C15.25 15.0069 16.4856 17.7267 18.475 19.6768L19.525 18.6057Z" fill="white"/>
<path d="M5.51965 4.4592C7.51035 6.37207 8.75 9.04329 8.75 12H7.25C7.25 9.47272 6.19238 7.18589 4.48035 5.5408L5.51965 4.4592ZM4.48035 18.4592C6.19238 16.8141 7.25 14.5273 7.25 12H8.75C8.75 14.9567 7.51035 17.6279 5.51965 19.5408L4.48035 18.4592Z" fill="white"/>
<path d="M12.75 2C12.75 1.58579 12.4142 1.25 12 1.25C11.5858 1.25 11.25 1.58579 11.25 2H12.75ZM11.25 22C11.25 22.4142 11.5858 22.75 12 22.75C12.4142 22.75 12.75 22.4142 12.75 22H11.25ZM11.25 2V22H12.75V2H11.25Z" fill="white"/>
<path d="M22 11.25C22.4142 11.25 22.75 11.5858 22.75 12C22.75 12.4142 22.4142 12.75 22 12.75L22 11.25ZM2 12.75C1.58579 12.75 1.25 12.4142 1.25 12C1.25 11.5858 1.58579 11.25 2 11.25L2 12.75ZM22 12.75L2 12.75L2 11.25L22 11.25L22 12.75Z" fill="white"/>
</svg>
