<svg width="153" height="201" viewBox="0 0 153 201" fill="none" xmlns="http://www.w3.org/2000/svg">
<path fill-rule="evenodd" clip-rule="evenodd" d="M152.5 0.5L0.118998 124.31C0.118996 166.388 34.231 200.5 76.3095 200.5C118.388 200.5 152.5 166.388 152.5 124.31L152.5 0.5ZM19.802 132.859C23.928 160.363 47.656 181.452 76.3095 181.452C107.869 181.452 133.452 155.869 133.452 124.31L133.452 92.9602C118.288 106.533 98.2625 114.786 76.3095 114.786C66.3815 114.786 56.8376 113.094 47.958 109.983L19.802 132.859ZM66.3903 95.0064C69.6251 95.4883 72.9371 95.7381 76.3095 95.7381C100.56 95.7381 121.787 82.7897 133.452 63.4294L133.452 40.5185L66.3903 95.0064Z" fill="#171717"/>
</svg>
